<?xml version="1.0" encoding="UTF-8" standalone="no"?>
<!-- Created with Inkscape (http://www.inkscape.org/) -->

<svg
   xmlns:dc="http://purl.org/dc/elements/1.1/"
   xmlns:cc="http://creativecommons.org/ns#"
   xmlns:rdf="http://www.w3.org/1999/02/22-rdf-syntax-ns#"
   xmlns:svg="http://www.w3.org/2000/svg"
   xmlns="http://www.w3.org/2000/svg"
   xmlns:sodipodi="http://sodipodi.sourceforge.net/DTD/sodipodi-0.dtd"
   xmlns:inkscape="http://www.inkscape.org/namespaces/inkscape"
   id="svg7384"
   height="16"
   width="16"
   version="1.1"
   inkscape:version="0.48.4 r9939"
   sodipodi:docname="language.svg">
  <defs
     id="defs9" />
  <sodipodi:namedview
     pagecolor="#000000"
     bordercolor="#666666"
     borderopacity="1"
     objecttolerance="10"
     gridtolerance="10"
     guidetolerance="10"
     inkscape:pageopacity="0.80392157"
     inkscape:pageshadow="2"
     inkscape:window-width="1600"
     inkscape:window-height="848"
     id="namedview7"
     showgrid="true"
     inkscape:snap-bbox="true"
     inkscape:zoom="29.5"
     inkscape:cx="5.7236236"
     inkscape:cy="8.0719299"
     inkscape:window-x="0"
     inkscape:window-y="23"
     inkscape:window-maximized="1"
     inkscape:current-layer="svg7384">
    <inkscape:grid
       type="xygrid"
       id="grid2986"
       empspacing="5"
       visible="true"
       enabled="true"
       snapvisiblegridlinesonly="true"
       color="#ffffff"
       opacity="0.1254902"
       empcolor="#ffffff"
       empopacity="0.25098039" />
  </sodipodi:namedview>
  <metadata
     id="metadata90">
    <rdf:RDF>
      <cc:Work
         rdf:about="">
        <dc:format>image/svg+xml</dc:format>
        <dc:type
           rdf:resource="http://purl.org/dc/dcmitype/StillImage" />
        <dc:title>Gnome Symbolic Icon Theme</dc:title>
      </cc:Work>
    </rdf:RDF>
  </metadata>
  <title
     id="title9167">Gnome Symbolic Icon Theme</title>
  <path
     inkscape:connector-curvature="0"
     d="M 4.9641771,1.8190475 C 1.152894,1.8190475 0,3 0,3 l -2.68832e-6,11.000003 c 0,0 1.15289668832,-1.145556 4.96417978832,-1.145556 3.1025857,0 4.758199,1.145556 7.6372489,1.145556 C 14.824231,14.000003 16,13 16,13 L 16,2 c 0,0 -1.213965,0.9264071 -3.43677,0.9264071 -3.5891302,0 -4.2304796,-1.1073596 -7.5990529,-1.1073596 z M 8.0830413,4.767786 c 1.4137773,0 2.5268817,1.149492 2.5268817,2.5933791 0,1.4438871 -1.1131044,2.6266808 -2.5268817,2.6266808 -1.4137773,0 -2.5600775,-1.1826873 -2.5600775,-2.6266808 0,-1.4438871 1.1464066,-2.5933791 2.5600775,-2.5933791 z M 3.2287676,5.798488 4.2594695,6.8956336 3.262016,6.8624384 4.2594695,7.9263888 3.2287676,7.8931935 4.2594695,8.9903392 3.1955191,8.9571439 l 0.033195,-1.0639504 -0.033195,0 0.033195,-1.0307551 -0.033195,0 z m 4.8542737,0 c -0.8447766,0 -1.5627304,0.6998666 -1.5627304,1.5627303 0,0.8628106 0.7179006,1.5627304 1.5627304,1.5627304 0.844766,0 1.5294287,-0.6998666 1.5294287,-1.5627304 0,-0.8628105 -0.6846627,-1.5627303 -1.5294287,-1.5627303 z m 4.6547827,0 0,1.0639504 0.0332,1.0307019 -0.0332,0 0.0332,1.0639504 -1.063951,0.033195 1.030702,-1.0971457 -1.030702,0.033195 0.997454,-1.0639504 -0.997454,0.033195 z M 4.292718,8.9571439 5.3234199,10.05429 4.2594695,10.021094 z m 7.381156,0 0.0332,1.0639501 -1.06395,0.0332 z M 5.3566684,10.021094 6.3873703,11.11824 5.3234199,11.08504 z m 5.2532546,0 0.0332,1.063951 -1.0639507,0.0332 z"
     style="opacity:0.86000001;fill:#ffffff;fill-opacity:1"
     id="rect7213"
     sodipodi:nodetypes="sccssccsssssssccccccccccccsssssccccccccccccccccccccccccccc" />
</svg>
