<?xml version="1.0" encoding="UTF-8" standalone="no"?>
<!-- Created with Inkscape (http://www.inkscape.org/) -->

<svg
   xmlns:dc="http://purl.org/dc/elements/1.1/"
   xmlns:cc="http://creativecommons.org/ns#"
   xmlns:rdf="http://www.w3.org/1999/02/22-rdf-syntax-ns#"
   xmlns:svg="http://www.w3.org/2000/svg"
   xmlns="http://www.w3.org/2000/svg"
   xmlns:sodipodi="http://sodipodi.sourceforge.net/DTD/sodipodi-0.dtd"
   xmlns:inkscape="http://www.inkscape.org/namespaces/inkscape"
   id="svg7384"
   height="16"
   width="16"
   version="1.1"
   inkscape:version="0.48.4 r9939"
   sodipodi:docname="language.svg">
  <defs
     id="defs9" />
  <sodipodi:namedview
     pagecolor="#000000"
     bordercolor="#666666"
     borderopacity="1"
     objecttolerance="10"
     gridtolerance="10"
     guidetolerance="10"
     inkscape:pageopacity="0.85882353"
     inkscape:pageshadow="2"
     inkscape:window-width="800"
     inkscape:window-height="846"
     id="namedview7"
     showgrid="true"
     inkscape:snap-bbox="true"
     inkscape:zoom="14.75"
     inkscape:cx="-15.333256"
     inkscape:cy="8"
     inkscape:window-x="0"
     inkscape:window-y="23"
     inkscape:window-maximized="0"
     inkscape:current-layer="svg7384">
    <inkscape:grid
       type="xygrid"
       id="grid2986"
       empspacing="5"
       visible="true"
       enabled="true"
       snapvisiblegridlinesonly="true" />
  </sodipodi:namedview>
  <metadata
     id="metadata90">
    <rdf:RDF>
      <cc:Work
         rdf:about="">
        <dc:format>image/svg+xml</dc:format>
        <dc:type
           rdf:resource="http://purl.org/dc/dcmitype/StillImage" />
        <dc:title>Gnome Symbolic Icon Theme</dc:title>
      </cc:Work>
    </rdf:RDF>
  </metadata>
  <title
     id="title9167">Gnome Symbolic Icon Theme</title>
  <g
     id="layer11"
     transform="matrix(1.0639504,0,0,1.0639504,-322.43464,-691.08929)"
     style="fill:#ffffff;fill-opacity:1;opacity:1">
    <path
       id="rect7213"
       style="fill:#ffffff;fill-opacity:1"
       d="m 307.72,651.26 c -3.5822,0 -4.6658,1.3998 -4.6658,1.3998 v 10.049 c 0,0 1.0836,-1.0767 4.6658,-1.0767 2.9161,0 4.4722,1.0767 7.1782,1.0767 2.0892,0 3.1943,-1.3998 3.1943,-1.3998 V 651.26 c 0,0 -1.141,1.0408 -3.2302,1.0408 -3.3734,0 -3.9762,-1.0408 -7.1423,-1.0408 z m 2.9314,2.7715 c 1.3288,0 2.375,1.0804 2.375,2.4375 0,1.3571 -1.0462,2.4688 -2.375,2.4688 -1.3288,0 -2.4062,-1.1116 -2.4062,-2.4688 0,-1.3571 1.0775,-2.4375 2.4062,-2.4375 z m -4.5625,0.96875 0.96875,1.0312 -0.9375,-0.0312 0.9375,1 -0.96875,-0.0312 0.96875,1.0312 -1,-0.0312 0.0312,-1 h -0.0312 l 0.0312,-0.9688 h -0.0312 z m 4.5625,0 c -0.794,0 -1.4688,0.6578 -1.4688,1.4688 0,0.81095 0.67475,1.4688 1.4688,1.4688 0.79399,0 1.4375,-0.6578 1.4375,-1.4688 0,-0.81095 -0.64351,-1.4688 -1.4375,-1.4688 z m 4.375,0 v 1 l 0.0312,0.96875 h -0.0312 l 0.0312,1 -1,0.0312 0.96875,-1.0312 -0.96875,0.0312 0.9375,-1 -0.9375,0.0312 z m -7.9375,2.9688 0.96875,1.0312 -1,-0.0312 z m 6.9375,0 0.0312,1 -1,0.0312 z m -5.9375,1 0.96875,1.0312 -1,-0.0312 z m 4.9375,0 0.0312,1 -1,0.0312 z"
       inkscape:connector-curvature="0" />
  </g>
</svg>
